<svg width="30" height="30" viewBox="0 0 30 30" fill="none" xmlns="http://www.w3.org/2000/svg">
<g clip-path="url(#clip0_2_25)">
<path d="M19.4375 16.25C20.375 16.25 21.2 15.7375 21.625 14.9625L26.1 6.85C26.5625 6.025 25.9625 5 25.0125 5H7.14744C6.75991 5 6.40726 4.77609 6.24242 4.42536L5.60758 3.07464C5.44274 2.72391 5.09009 2.5 4.70256 2.5H2.25C1.69771 2.5 1.25 2.94772 1.25 3.5V4C1.25 4.55228 1.69772 5 2.25 5H3.11753C3.50379 5 3.85551 5.22246 4.02104 5.57145L8.03009 14.0238C8.16814 14.3149 8.15752 14.6546 8.00157 14.9365L6.5625 17.5375C5.65 19.2125 6.85 21.25 8.75 21.25H22.75C23.3023 21.25 23.75 20.8023 23.75 20.25V19.75C23.75 19.1977 23.3023 18.75 22.75 18.75H10.4413C9.68067 18.75 9.19851 17.9345 9.56506 17.2681L9.84006 16.7681C10.0158 16.4485 10.3516 16.25 10.7163 16.25H19.4375ZM8.37702 8.92832C8.06254 8.26485 8.54642 7.5 9.28065 7.5H21.1933C21.9545 7.5 22.4366 8.31678 22.0687 8.98326L19.7227 13.2333C19.5468 13.5521 19.2114 13.75 18.8473 13.75H11.2952C10.9088 13.75 10.557 13.5274 10.3915 13.1783L8.37702 8.92832ZM8.75 22.5C7.375 22.5 6.2625 23.625 6.2625 25C6.2625 26.375 7.375 27.5 8.75 27.5C10.125 27.5 11.25 26.375 11.25 25C11.25 23.625 10.125 22.5 8.75 22.5ZM21.25 22.5C19.875 22.5 18.7625 23.625 18.7625 25C18.7625 26.375 19.875 27.5 21.25 27.5C22.625 27.5 23.75 26.375 23.75 25C23.75 23.625 22.625 22.5 21.25 22.5Z" fill="black"/>
</g>
<defs>
<clipPath id="clip0_2_25">
<rect width="30" height="30" fill="white"/>
</clipPath>
</defs>
</svg>
