<svg width="30" height="30" viewBox="0 0 30 30" fill="none" xmlns="http://www.w3.org/2000/svg">
<g clip-path="url(#clip0_2_15)">
<path d="M16.575 3.75C10.2125 3.575 5 8.6875 5 15H2.7625C2.2 15 1.925 15.675 2.325 16.0625L5.8125 19.5625C6.0625 19.8125 6.45 19.8125 6.7 19.5625L10.1875 16.0625C10.575 15.675 10.3 15 9.7375 15H7.5C7.5 10.125 11.475 6.1875 16.375 6.25C21.025 6.3125 24.9375 10.225 25 14.875C25.0625 19.7625 21.125 23.75 16.25 23.75C14.2375 23.75 12.375 23.0625 10.9 21.9C10.4 21.5125 9.7 21.55 9.25 22C8.725 22.525 8.7625 23.4125 9.35 23.8625C11.25 25.3625 13.6375 26.25 16.25 26.25C22.5625 26.25 27.675 21.0375 27.5 14.675C27.3375 8.8125 22.4375 3.9125 16.575 3.75ZM15.9375 10C15.425 10 15 10.425 15 10.9375V15.5375C15 15.975 15.2375 16.3875 15.6125 16.6125L19.5125 18.925C19.9625 19.1875 20.5375 19.0375 20.8 18.6C21.0625 18.15 20.9125 17.575 20.475 17.3125L16.875 15.175V10.925C16.875 10.425 16.45 10 15.9375 10Z" fill="black"/>
</g>
<defs>
<clipPath id="clip0_2_15">
<rect width="30" height="30" fill="white"/>
</clipPath>
</defs>
</svg>
