<svg width="29" height="29" viewBox="0 0 29 29" fill="none" xmlns="http://www.w3.org/2000/svg">
<path fill-rule="evenodd" clip-rule="evenodd" d="M2.41666 14.5C2.41666 7.82655 7.82656 2.41666 14.5 2.41666C21.1734 2.41666 26.5833 7.82655 26.5833 14.5C26.5833 18.2218 24.9006 21.5507 22.2545 23.7672C21.7195 22.2939 20.7736 20.9984 19.5223 20.0382C18.0815 18.9326 16.3161 18.3333 14.5 18.3333C12.6839 18.3333 10.9185 18.9326 9.47772 20.0382C8.22635 20.9984 7.28053 22.2939 6.7455 23.7672C4.09937 21.5507 2.41666 18.2218 2.41666 14.5ZM20.537 24.9657L20.5379 24.969C18.7615 25.9957 16.6994 26.5833 14.5 26.5833C12.3006 26.5833 10.2385 25.9957 8.46208 24.969L8.46296 24.9657C8.81906 23.6367 9.60371 22.4624 10.6952 21.6249C11.7868 20.7873 13.1242 20.3333 14.5 20.3333C15.8758 20.3333 17.2132 20.7873 18.3048 21.6249C19.3963 22.4624 20.1809 23.6367 20.537 24.9657ZM11.875 10.875C11.875 9.42524 13.0503 8.24999 14.5 8.24999C15.9497 8.24999 17.125 9.42524 17.125 10.875C17.125 12.3247 15.9497 13.5 14.5 13.5C13.0503 13.5 11.875 12.3247 11.875 10.875ZM14.5 6.24999C11.9457 6.24999 9.875 8.32067 9.875 10.875C9.875 13.4293 11.9457 15.5 14.5 15.5C17.0543 15.5 19.125 13.4293 19.125 10.875C19.125 8.32067 17.0543 6.24999 14.5 6.24999Z" fill="black"/>
<rect x="2.91666" y="2.91666" width="23.1667" height="23.1667" rx="11.5833" stroke="black"/>
</svg>
